<?xml version="1.0" encoding="iso-8859-1"?>
<!-- Uploaded to: SVG Repo, www.svgrepo.com, Generator: SVG Repo Mixer Tools -->
<svg fill="#000000" height="800px" width="800px" version="1.1" id="Capa_1" xmlns="http://www.w3.org/2000/svg" xmlns:xlink="http://www.w3.org/1999/xlink" 
	 viewBox="0 0 52 52" xml:space="preserve">
<g>
	<path d="M49.195,20.186L24,15.986V7.5c0-0.389-0.226-0.742-0.578-0.907c-0.352-0.163-0.768-0.109-1.065,0.142l-22,18.5
		C0.131,25.425,0,25.704,0,26s0.131,0.575,0.356,0.765l22,18.5C22.54,45.42,22.769,45.5,23,45.5c0.144,0,0.287-0.031,0.422-0.093
		C23.774,45.242,24,44.889,24,44.5v-8.486l25.195-4.2C50.768,31.553,52,30.098,52,28.503v-5.005
		C52,21.903,50.769,20.448,49.195,20.186z M50,28.503c0,0.613-0.529,1.238-1.133,1.339l-26.031,4.339
		C22.354,34.261,22,34.678,22,35.167v7.186L2.554,26L22,9.647v7.186c0,0.489,0.354,0.906,0.836,0.986l26.031,4.339
		C49.471,22.259,50,22.885,50,23.497V28.503z"/>
</g>
</svg>